<?xml version="1.0" encoding="utf-8"?>
<!-- Generator: Adobe Illustrator 23.0.1, SVG Export Plug-In . SVG Version: 6.00 Build 0)  -->
<svg version="1.1" id="Layer_1" xmlns="http://www.w3.org/2000/svg" xmlns:xlink="http://www.w3.org/1999/xlink" x="0px" y="0px"
	 viewBox="0 0 400 400" style="enable-background:new 0 0 400 400;" xml:space="preserve">
<style type="text/css">
	.st0{fill:#FFFFFF;}
</style>
<path class="st0" d="M328.4,398.2l17-16.4c9.5-9.6,6.2-25.7,6.2-25.7l-6.5-47.9l23.4-24.3c12.4-12.8-6.6-24.3-13.1-19.3l-14.3,12.5
	l-9.4-51.6l20.1-17.5c22.1-18.7,2.2-32.6-9.5-24.2l-14.1,11.3l-10-77.5c63.3-66.6,89.5-93.8,73.9-111.3
	c-15.7-17.6-47,13.6-108.7,74.3l-78.8-11L218,53.4c7.9-9.6-4.8-26.6-21.2-9l-20.8,22.3l-51.6-9.4l10.6-14
	C144.8,31,132,16,114.4,32.7l-22,22.2c-0.7,0.9-45.2-7.2-45.2-7.2c-21.8-5-29.8,7.5-29.8,7.5L4.2,70.3l161.2,57.8
	c14.2,4.8,29.6,16.9,27.8,37.2c-1.1,10.7-19.2,37.8-23.4,41.5l-59.5,62.7c-1.1,1.6-77.4-9.6-77.4-9.6c-2.3,0-28,19.9-28,19.9
	l69.8,39.7l-9,19.6l17.6-11.5l39.9,71.5l19.4-26.8c-2.9-12.8-10.4-79.8-9.7-81.1c0,0,53.4-54.5,56.6-57.7
	c18.7-18,25.7-24.1,34.9-26.8c9.2-2.7,22.8,1.9,39.9,30.2C287.9,276,328.4,398.2,328.4,398.2L328.4,398.2z"/>
</svg>
