<?xml version="1.0" encoding="utf-8"?>
<!-- Generator: Adobe Illustrator 23.0.1, SVG Export Plug-In . SVG Version: 6.00 Build 0)  -->
<svg version="1.1" id="Layer_1" xmlns="http://www.w3.org/2000/svg" xmlns:xlink="http://www.w3.org/1999/xlink" x="0px" y="0px"
	 viewBox="0 0 1280 791" style="enable-background:new 0 0 1280 791;" xml:space="preserve">
<style type="text/css">
	.st0{fill:#FFFFFF;}
</style>
<g transform="translate(0.000000,791.000000) scale(0.100000,-0.100000)">
	<path class="st0" d="M6881,7884c-83-22-150-62-222-134c-105-104-113-127-218-635c-49-242-155-757-235-1145s-210-1022-290-1410
		s-179-869-220-1070c-69-336-190-924-476-2315c-60-291-114-560-120-597c-25-160,46-347,172-450c227-186,554-150,729,82
		c77,101,57,23,279,1103c60,295,160,778,220,1072c61,294,160,776,220,1070c61,294,160,776,220,1070c61,294,160,776,220,1070
		c148,717,327,1593,345,1682c39,189-6,345-134,474c-71,72-138,111-228,134C7072,7904,6952,7903,6881,7884z"/>
	<path class="st0" d="M3050,7100c-64-11-139-42-191-77c-24-17-657-642-1405-1389C-28,4155,51,4240,15,4089c-19-82-19-159,0-234
		c38-146-41-61,1429-1534c894-896,1381-1377,1421-1402c92-61,176-83,298-76c118,6,184,29,276,95c161,118,240,345,185,533
		c-42,142,6,90-1241,1339L1220,3975l1155,1155c636,635,1169,1175,1185,1199c67,100,97,260,71,380C3575,6970,3314,7145,3050,7100z"/>
	<path class="st0" d="M9554,7096c-189-43-345-200-385-387c-26-120,4-280,71-380c16-24,549-564,1185-1199l1155-1155l-1163-1165
		C9170,1561,9218,1613,9176,1471c-55-188,24-415,185-533c92-66,158-89,276-95c122-7,206,15,298,76c40,25,527,506,1421,1402
		c1470,1473,1391,1388,1429,1534c19,75,19,152,0,234c-36,151,43,66-1439,1545c-748,747-1383,1374-1411,1392
		C9831,7095,9676,7124,9554,7096z"/>
</g>
</svg>
