<?xml version="1.0" encoding="utf-8"?>
<!-- Generator: Adobe Illustrator 23.0.1, SVG Export Plug-In . SVG Version: 6.00 Build 0)  -->
<svg version="1.1" id="Capa_1" xmlns="http://www.w3.org/2000/svg" xmlns:xlink="http://www.w3.org/1999/xlink" x="0px" y="0px"
	 viewBox="0 0 469.3 469.3" style="enable-background:new 0 0 469.3 469.3;" xml:space="preserve">
<style type="text/css">
	.st0{fill:#00ABFF;}
</style>
<title>edit_blue</title>
<path class="st0" d="M347.9,151.4c-4.2-4-10.9-4-15.1,0L129.9,354.4c-4.2,4.2-4.2,10.9,0,15.1c0.8,0.8,1.7,1.5,2.8,2l16.7,8.3v28
	l-51,14.6L46.8,371l14.6-51.1h28l8.3,16.7c1.5,3.1,4.5,5.2,7.8,5.8c0.6,0.1,1.1,0.1,1.7,0.1c2.8,0,5.5-1.1,7.6-3.1l202.9-203.1
	c4.2-4.2,4.2-10.9,0-15.1c0,0,0,0,0,0l-39.2-39.3c-2-2-4.7-3.1-7.5-3.1l0,0c-2.8,0-5.6,1.1-7.5,3.2L45.8,301.7
	c-0.1,0.1-0.1,0.3-0.2,0.4c-1.2,1.2-2,2.6-2.5,4.2l-18.5,64.9L0.4,455.7c-1.6,5.7,1.7,11.6,7.3,13.2c0.9,0.3,1.9,0.4,2.9,0.4
	c1,0,2-0.1,2.9-0.4l84.5-24.2l64.8-18.5c0.2-0.1,0.3-0.2,0.5-0.3c0.7-0.3,1.3-0.6,1.9-1c0.6-0.3,1.2-0.7,1.7-1.1
	c0.1-0.1,0.3-0.2,0.4-0.3l219.6-217.8c4.2-4.2,4.2-10.9,0-15.1c0,0,0,0,0,0L347.9,151.4z"/>
<path class="st0" d="M456.8,76.2l-64-64.1c-16.1-16.1-44.2-16.2-60.4,0l-39.1,39.5c-4.2,4.2-4.2,10.9,0,15.1l108.9,109
	c4.2,4.2,10.9,4.2,15,0l39.5-39.1C473.5,119.9,473.5,92.8,456.8,76.2L456.8,76.2z"/>
</svg>
