<?xml version="1.0" encoding="utf-8"?>
<!-- Generator: Adobe Illustrator 23.0.1, SVG Export Plug-In . SVG Version: 6.00 Build 0)  -->
<svg version="1.1" id="Layer_1" xmlns="http://www.w3.org/2000/svg" xmlns:xlink="http://www.w3.org/1999/xlink" x="0px" y="0px"
	 viewBox="0 0 887 1280" style="enable-background:new 0 0 887 1280;" xml:space="preserve">
<style type="text/css">
	.st0{fill:#FFFFFF;}
</style>
<g transform="translate(0.000000,1280.000000) scale(0.100000,-0.100000)">
	<path class="st0" d="M3820,12741c-405-99-397-94-453-266c-75-228-115-451-124-700c-5-124-3-161,11-209c10-32,14-61,11-65
		c-4-3-50-6-103-7c-79-1-109-6-163-27c-145-56-178-94-263-313c-132-338-420-1178-750-2182c-183-555-210-651-203-718
		c9-88,146-352,221-428c40-39,133-85,258-125c85-27,143-39,321-68l49-8l-36-46c-121-159-217-428-237-664c-17-207-9-309,33-450
		c65-215,73-300,72-720c-2-572-32-922-104-1200c-36-138-140-450-213-640c-77-202-103-315-148-653c-43-324-89-590-115-670
		c-23-67-36-89-95-162c-79-98-204-292-261-407c-57-113-69-176-48-253c22-83,276-308,424-376c32-15,71-43,94-69
		c39-45,117-164,111-170c-14-13-236-115-251-115c-10,0-44,11-76,24c-86,36-162,44-457,51c-148,3-301,11-340,17c-40,6-143,38-239,75
		c-318,121-344,116-484-90C95,862,23,657,4,378c-9-136-4-145,103-186C255,136,555,57,765,19C936-11,980-5,1840,165
		c289,57,591,113,672,125s180,32,220,46c134,45,199,29,319-82c41-37,94-76,119-87c67-30,198-19,431,37c284,68,317,71,524,46
		c119-15,215-21,301-18l126,3l32,35c18,20,47,72,65,115c152,369,439,901,463,859c3-5,0-29-7-54s-23-81-35-125c-20-69-23-105-24-255
		c-1-147,2-184,18-229c33-95,106-152,296-233c132-56,292-138,397-205c226-143,217-143,693,57c403,170,492,198,847,271
		c338,69,339,69,337,183c-1,80-37,223-114,459c-63,191-121,311-204,420c-77,103-133,200-142,245c-10,50,9,38,40-25
		c36-74,91-151,206-288c188-225,297-417,445-780c139-342,172-390,276-410c72-13,474,99,635,177c85,41,99,69,91,178
		c-10,131-118,613-192,855c-42,140-94,262-127,304c-80,102-812,631-872,631c-42,0-177-101-431-320c-65-57-108-80-122-67
		c-8,9,16,64,56,127c76,120,334,678,363,783l12,47l-79,81c-90,91-299,263-370,304c-63,37-111,31-290-36c-108-40-153-52-195-52
		c-64,0-190,33-268,70l-54,26l5,47c3,26,46,220,96,431s142,614,206,894c208,919,557,2291,662,2605c33,99,199,655,253,845
		c52,183,72,225,145,294c107,103,127,184,118,476c-7,228-8,221,104,585c141,460,155,537,113,606c-30,47-99,78-158,70
		c-97-13-124-69-266-542c-49-162-112-322-151-384c-32-51-89-79-173-87c-113-9-123-17-216-166c-77-122-158-127-268-15
		c-81,82-93,88-176,88c-52,0-114-10-209-35c-202-52-282-48-385,23c-161,108-267,206-335,308c-29,45-97,132-151,193
		c-228,262-262,305-278,348c-31,80,0,99,179,113c184,14,264,50,295,135c6,17,16,65,23,108s19,87,28,98c9,10,43,29,76,42l60,23l6,110
		c9,158,28,212,98,289c31,33,40,55,55,125c15,68,25,90,48,112c17,15,36,28,44,28c23,0,54,38,54,65c0,44-40,107-115,181
		c-81,81-179,143-289,184c-42,15-95,40-120,54c-48,28-106,91-106,116c0,8-21,49-45,90c-51,83-52,97-33,250c11,95,11,96-16,155
		c-15,33-37,71-49,83c-48,52-266,144-564,237c-188,60-790,235-801,234C4058,12799,3949,12773,3820,12741z M7160,8391
		c5-11,10-35,10-53c0-57-55-304-140-624c-45-170-132-505-195-744c-160-611-203-764-289-1020c-164-493-376-1341-551-2200
		c-30-146-61-283-68-305l-15-40l-12,45c-6,25-17,52-23,61c-19,25-68,47-148,65c-160,36-175,56-354,485l-77,186l167,289
		c92,159,238,399,323,534c288,454,336,534,422,705c105,208,131,283,138,396c5,96-18,209-63,307c-47,102-61,114-217,182
		c-79,34-343,160-588,280c-470,231-657,314-786,350c-92,26-154,49-154,59c0,14,71,142,125,224c31,49,80,139,107,200
		c27,62,67,154,90,204c68,153,114,194,266,232c107,28,156,26,325-8c159-33,271-47,429-56c132-7,168-19,264-91c98-72,128-84,211-84
		c101,0,277,26,325,48c54,24,76,49,129,142c76,136,118,176,239,226C7118,8415,7146,8416,7160,8391z M4305,5910
		c315-36,680-131,783-206c2-1-28-65-66-141s-141-302-227-503c-87-201-163-378-171-395c-7-16-67-94-132-173c-133-159-200-268-238-387
		c-47-147-18-252,107-388c118-128,222-196,333-216c78-14,138-61,282-220l113-125l-86-125c-47-69-95-137-107-149
		c-38-42-98-70-296-137c-107-37-207-73-222-81c-52-27-53-33-56-409c-2-192-6-353-10-357s-68-26-142-48c-149-46-208-75-236-117
		c-10-15-56-98-102-183c-103-191-226-380-247-380c-9,0-70,16-136,35s-161,40-212,46c-108,12-113,16-171,125c-66,125-129,159-327,179
		l-65,6l-33,137c-19,75-49,189-68,252c-34,112-34,117-23,190c43,278,232,907,352,1174c28,61,95,223,150,361c120,298,181,422,281,572
		c88,131,106,174,158,393c41,169,78,271,194,540c37,85,91,220,121,299c89,237,160,347,263,413C4120,5924,4156,5926,4305,5910z"/>
</g>
</svg>
