<?xml version="1.0" encoding="utf-8"?>
<!-- Generator: Adobe Illustrator 23.0.1, SVG Export Plug-In . SVG Version: 6.00 Build 0)  -->
<svg version="1.1" id="Layer_1" xmlns="http://www.w3.org/2000/svg" xmlns:xlink="http://www.w3.org/1999/xlink" x="0px" y="0px"
	 viewBox="0 0 1028 1280" style="enable-background:new 0 0 1028 1280;" xml:space="preserve">
<style type="text/css">
	.st0{fill:#FFFFFF;}
</style>
<g transform="translate(0.000000,1280.000000) scale(0.100000,-0.100000)">
	<path class="st0" d="M5645,12794c-388-32-872-121-1165-215c-127-41-177-67-293-150c-98-70-98-70-185-79c-143-15-390-65-577-115
		c-554-151-1279-613-1732-1104c-202-219-292-345-486-676c-339-583-450-880-513-1385c-33-265-37-790-8-1210c4-52,3-92-1-88
		s-156-230-338-520C166,6962,13,6718,8,6710c-6-10,12-144,56-408c36-216,66-397,66-403c0-7,14-8,40-4c35,6,40,4,40-12
		c0-13-22-29-75-56l-76-37l7-38c3-20,19-89,34-152c16-63,33-149,40-190c22-153,76-332,145-485c15-33,59-143,97-245l69-185l-15-165
		c-25-267-29-414-17-570c27-323,139-780,293-1195c37-99,50-122,136-230c152-189,328-392,429-492c108-107,148-129,443-241
		c208-78,248-89,256-67c4,10,21,3,67-31c97-72,187-109,367-153c370-89,425-91,697-21c314,79,363,110,645,403
		c261,271,285,303,456,617c271,497,303,588,391,1101c116,673,137,1000,126,1924c-9,721-16,848-60,1080c-37,197-54,249-156,482
		c-94,214-151,307-243,398c-124,123-241,214-350,275c-56,30-351,122-439,137c-23,3-34,9-27,13c13,8,8,188-5,210c-7,11-119,69-175,90
		c-19,7-93,38-165,70c-71,31-155,67-185,79s-60,25-67,27c-6,3-13-3-16-13c-4-16-5-16-6-1c-1,22,0,22-296,54c-137,15-252,29-253,30
		c-5,3,11,132,54,434c140,983,308,1724,480,2113c71,160,202,348,428,612c159,185,523,548,716,714l155,133l122-6
		c244-12,448-67,689-185c173-84,281-149,609-366c358-237,490-339,726-558c237-219,737-790,991-1130c526-705,990-1665,1153-2387
		c64-286,99-694,79-932l-7-75l-77,23c-42,12-103,27-136,34c-32,7-78,23-100,36c-50,30-163,55-399,89c-192,28-288,28-425,0
		c-609-127-1152-815-1541-1955c-177-517-262-930-324-1580c-94-978-78-1887,41-2310c52-184,232-496,372-642c163-171,325-232,677-257
		c66-5,170-20,230-34c296-69,726-93,985-53c396,60,742,186,1020,372c521,348,808,694,978,1176c110,310,172,959,172,1788
		c0,400-11,665-37,925c-10,94-17,186-17,205s24,114,53,210c103,348,210,813,261,1137c6,37,13,78,16,90c5,20,0,22-73,34
		c-69,11-74,14-45,20c18,4,35,8,37,11c2,2,0,21-5,43s-10,85-10,140c0,114,4,126,98,261c71,103,69,158-8,170c-19,3-95,33-168,65
		s-140,59-149,59c-12,0-14,8-10,38c20,120,40,585,40,917c1,435-17,671-69,955c-105,572-583,1500-1188,2308c-239,318-455,570-696,812
		c-429,430-763,668-1142,814c-193,74-539,184-633,201C6117,12791,5758,12803,5645,12794z M2498,8170c316-37,316-37,373-66
		c26-13,58-25,73-28c14-3,43-14,63-25c43-22,150-69,233-100c31-12,69-30,86-40c30-18,31-21,26-73c-2-29-6-54-7-56c-2-2-31,2-64,8
		c-87,16-298,40-348,40c-24,0-43,5-43,10c0,24-487,1-633-30c-101-22-220-72-410-172c-174-92-250-143-349-236
		c-200-188-407-498-640-957c-227-449-293-674-333-1136c-9-101-18-204-21-229l-6-45l-14,28c-26,48-53,177-79,372
		c-13,105-34,226-45,270s-24,109-29,144c-6,35-12,65-15,68s-25-6-50-20c-42-23-46-24-46-7c0,10,5,20,11,22c8,3-7,116-50,366
		c-33,199-61,371-61,383c0,11,145,250,322,532c176,282,321,519,320,529c0,10,10,19,26,23c15,3,81,23,147,45c66,21,221,70,345,110
		c124,39,236,75,250,80s126,41,250,80c124,40,270,87,325,105s108,34,118,34C2233,8200,2357,8186,2498,8170z M7780,6830
		c74-11,182-30,240-42l105-23l-110-6c-346-20-642-184-952-528c-187-207-350-445-495-726c-37-71-68-127-68-122c0,4,16,39,35,77
		s35,71,35,72c0,2-12,3-27,3c-16,0-46,4-68,8c-22,3-32,3-21-1c15-7,7-16-53-60c-39-29-74-52-77-52s-11-6-18-12c-8-7-24-20-36-28
		s-28-21-36-27c-7-7-16-13-20-13s-55-36-114-80s-110-80-114-80s-14-7-23-15c-8-8-18-13-22-10c-5,2-30-54-56-125
		c-26-72-50-129-52-127c-4,5,52,163,125,347c115,294,345,722,495,920c278,369,575,585,897,654C7445,6855,7624,6853,7780,6830z
		 M10027,6591c76-32,144-60,151-62c9-3-1-25-33-68c-90-122-95-137-95-285c0-72,4-146,9-164c11-39,10-39-123-17c-49,8-92,12-95,10
		c-5-6-14-63-46-319c-24-194-76-426-96-426c-5,0-9,6-9,13c0,8-22,69-50,137c-86,213-192,381-398,628c-51,63-92,115-90,117
		c22,23,443,255,461,255c40,0,88,25,182,94c89,65,89,66,86,106c-1,22,0,40,3,40S9952,6624,10027,6591z M6610,5521
		c-48-96-154-337-200-456c-41-106-60-147-45-95c33,115,252,610,269,610C6638,5580,6627,5553,6610,5521z M6334,4856
		c-9-26-18-45-20-43s3,25,12,51s18,45,20,43S6343,4882,6334,4856z M1781,1763c13-16,12-17-3-4c-17,13-22,21-14,21
		C1766,1780,1774,1772,1781,1763z"/>
	<path class="st0" d="M6525,6238c-95-100-142-171-229-346c-90-179-108-228-93-240c19-16,215-82,287-97c37-8,66-10,68-5s23,50,47,99
		c89,183,139,256,333,492l22,27l-147,72c-82,39-162,74-179,77C6607,6322,6597,6314,6525,6238z"/>
	<path class="st0" d="M6604,5625c-20-42-35-77-33-79c2-3,23,31,46,75c23,43,38,79,33,79S6624,5666,6604,5625z"/>
</g>
</svg>
