<?xml version="1.0" encoding="utf-8"?>
<!-- Generator: Adobe Illustrator 23.0.1, SVG Export Plug-In . SVG Version: 6.00 Build 0)  -->
<svg version="1.1" id="Capa_1" xmlns="http://www.w3.org/2000/svg" xmlns:xlink="http://www.w3.org/1999/xlink" x="0px" y="0px"
	 viewBox="0 0 480 480" style="enable-background:new 0 0 480 480;" xml:space="preserve">
<style type="text/css">
	.st0{fill:#2C77C1;}
</style>
<g>
	<g>
		<path class="st0" d="M256,128c-8.8,0-16,7.2-16,16s7.2,16,16,16c35.3,0,64,28.7,64,64c0,8.8,7.2,16,16,16s16-7.2,16-16
			C352,171.1,308.9,128,256,128z"/>
	</g>
</g>
<g>
	<g>
		<path class="st0" d="M256,64c-8.8,0-16,7.2-16,16s7.2,16,16,16c70.6,0,128,57.4,128,128c0,8.8,7.2,16,16,16s16-7.2,16-16
			C416,135.8,344.2,64,256,64z"/>
	</g>
</g>
<g>
	<g>
		<path class="st0" d="M256,0c-8.8,0-16,7.2-16,16s7.2,16,16,16c105.9,0,192,86.1,192,192c0,8.8,7.2,16,16,16s16-7.2,16-16
			C480,100.5,379.5,0,256,0z"/>
	</g>
</g>
<g>
	<g>
		<path class="st0" d="M432,352c-46.5,0-90.7-10.1-131.5-30c-3.8-1.9-8.3-2.1-12.3-0.7c-4,1.4-7.3,4.4-9.2,8.2l-25.2,52.1
			c-65.1-36.3-119-90.2-155.3-155.3l52-25.2c3.8-1.9,6.8-5.2,8.2-9.2c1.4-4,1.1-8.4-0.8-12.3c-19.9-40.8-30-85.1-30-131.5
			c0-8.8-7.2-16-16-16H16C7.2,32,0,39.2,0,48c0,238.2,193.8,432,432,432c8.8,0,16-7.2,16-16v-96C448,359.2,440.8,352,432,352z"/>
	</g>
</g>
</svg>
