<?xml version="1.0" encoding="utf-8"?>
<!-- Generator: Adobe Illustrator 23.0.1, SVG Export Plug-In . SVG Version: 6.00 Build 0)  -->
<svg version="1.1" id="Layer_1" xmlns="http://www.w3.org/2000/svg" xmlns:xlink="http://www.w3.org/1999/xlink" x="0px" y="0px"
	 viewBox="0 0 50 50" style="enable-background:new 0 0 50 50;" xml:space="preserve">
<style type="text/css">
	.st0{fill:none;stroke:#FF0000;stroke-width:2;stroke-linecap:round;stroke-miterlimit:10;}
	.st1{fill:#FF0000;}
</style>
<path class="st0" d="M19,8V5c0-1.1,0.9-2,2-2h8c1.1,0,2,0.9,2,2v3 M8,8h34"/>
<path class="st1" d="M9,8v37c0,1.7,1.3,3,3,3h26c1.7,0,3-1.3,3-3V8H9z M20,40c0,0.6-0.4,1-1,1s-1-0.4-1-1V15c0-0.6,0.4-1,1-1
	s1,0.4,1,1V40z M26,40c0,0.6-0.4,1-1,1s-1-0.4-1-1V15c0-0.6,0.4-1,1-1s1,0.4,1,1V40z M32,40c0,0.6-0.4,1-1,1s-1-0.4-1-1V15
	c0-0.6,0.4-1,1-1s1,0.4,1,1V40z"/>
</svg>
